<svg xmlns="http://www.w3.org/2000/svg" version="1.1" xmlns:xlink="http://www.w3.org/1999/xlink" xmlns:svgjs="http://svgjs.com/svgjs" width="1440" height="560" preserveAspectRatio="none" viewBox="0 0 1440 560"><g mask="url(&quot;#SvgjsMask1002&quot;)" fill="none"><rect width="1440" height="560" x="0" y="0" fill="#0e2a47"></rect><path d="M0 455.32L10 501.05L20 543.78L30 513.66L40 457.93L50 454.14L60 513.95L70 482.2L80 414.82L90 450.63L100 499.24L110 443.87L120 511.99L130 558.78L140 490.71L150 547.15L160 500.9L170 518.36L180 512.26L190 508.08L200 460L210 526.18L220 504.79L230 484.89L240 459.14L250 431.35L260 462.28L270 519.93L280 558.78L290 548.82L300 494.98L310 433.14L320 410.81L330 443.32L340 478.87L350 426.67L360 399.03L370 337.66L380 391.39L390 322.23L400 354.96L410 290.49L420 233.16L430 272.4L440 297.9L450 331.34L460 331.58L470 390.6L480 382.79L490 393.2L500 385.57L510 363.89L520 393.98L530 439.63L540 430.71L550 473.64L560 541.56L570 480.16L580 461.5L590 445.4L600 398.37L610 344.76L620 388.58L630 400.85L640 399.28L650 466.73L660 436.78L670 417.36L680 451.64L690 494.4L700 435.42L710 391.37L720 416.59L730 467.53L740 470.39L750 405.66L760 378.98L770 325.91L780 311.1L790 290.54L800 308.25L810 378.05L820 425.17L830 493.23L840 434.14L850 488.8L860 511.66L870 450.13L880 509.56L890 489.42L900 520.43L910 483.57L920 517.62L930 472L940 471.68L950 411.21L960 384.5L970 324.17L980 352.59L990 420.82L1000 375.5L1010 384.2L1020 397.62L1030 421.38L1040 381.96L1050 376.14L1060 432.7L1070 473.84L1080 426.59L1090 363.77L1100 303.04L1110 239.86L1120 199.21L1130 261.69L1140 263.22L1150 317.85L1160 379.28L1170 409.51L1180 389.39L1190 389.9L1200 453.67L1210 413.85L1220 402.19L1230 369.27L1240 372.75L1250 393.05L1260 375.46L1270 372.15L1280 386L1290 385.35L1300 391.37L1310 388.4L1320 353.51L1330 349.28L1340 373.92L1350 394.07L1360 353.35L1370 391.23L1380 455.59L1390 498.92L1400 497.98L1410 523.49L1420 488.9L1430 455.65L1440 506.78" stroke="#224b75" stroke-width="2"></path><path d="M0 455.32L10 501.05L20 543.78L30 513.66L40 457.93L50 454.14L60 513.95L70 482.2L80 414.82L90 450.63L100 499.24L110 443.87L120 511.99L130 558.78L140 490.71L150 547.15L160 500.9L170 518.36L180 512.26L190 508.08L200 460L210 526.18L220 504.79L230 484.89L240 459.14L250 431.35L260 462.28L270 519.93L280 558.78L290 548.82L300 494.98L310 433.14L320 410.81L330 443.32L340 478.87L350 426.67L360 399.03L370 337.66L380 391.39L390 322.23L400 354.96L410 290.49L420 233.16L430 272.4L440 297.9L450 331.34L460 331.58L470 390.6L480 382.79L490 393.2L500 385.57L510 363.89L520 393.98L530 439.63L540 430.71L550 473.64L560 541.56L570 480.16L580 461.5L590 445.4L600 398.37L610 344.76L620 388.58L630 400.85L640 399.28L650 466.73L660 436.78L670 417.36L680 451.64L690 494.4L700 435.42L710 391.37L720 416.59L730 467.53L740 470.39L750 405.66L760 378.98L770 325.91L780 311.1L790 290.54L800 308.25L810 378.05L820 425.17L830 493.23L840 434.14L850 488.8L860 511.66L870 450.13L880 509.56L890 489.42L900 520.43L910 483.57L920 517.62L930 472L940 471.68L950 411.21L960 384.5L970 324.17L980 352.59L990 420.82L1000 375.5L1010 384.2L1020 397.62L1030 421.38L1040 381.96L1050 376.14L1060 432.7L1070 473.84L1080 426.59L1090 363.77L1100 303.04L1110 239.86L1120 199.21L1130 261.69L1140 263.22L1150 317.85L1160 379.28L1170 409.51L1180 389.39L1190 389.9L1200 453.67L1210 413.85L1220 402.19L1230 369.27L1240 372.75L1250 393.05L1260 375.46L1270 372.15L1280 386L1290 385.35L1300 391.37L1310 388.4L1320 353.51L1330 349.28L1340 373.92L1350 394.07L1360 353.35L1370 391.23L1380 455.59L1390 498.92L1400 497.98L1410 523.49L1420 488.9L1430 455.65L1440 506.78L1440 560L0 560z" fill="url(#SvgjsLinearGradient1003)"></path></g><defs><mask id="SvgjsMask1002"><rect width="1440" height="560" fill="#ffffff"></rect></mask><linearGradient x1="50%" y1="0%" x2="50%" y2="100%" id="SvgjsLinearGradient1003"><stop stop-opacity="0.65" stop-color="#224b75" offset="0"></stop><stop stop-opacity="0" stop-color="#508dcc" offset="0.8"></stop></linearGradient></defs></svg>